<svg width="50" height="53" fill="none" xmlns="http://www.w3.org/2000/svg">
  <circle cx="25" cy="28" r="25" fill="#68B738"/>
  <g clip-path="url(#a)">
    <path d="M35.2034 0h-.1954c-.3302.187-.593.474-.7509.8196a8.0278 8.0278 0 0 0-.6634 1.7577.8405.8405 0 0 1-.2627.4758.8374.8374 0 0 1-.4984.215 3.7707 3.7707 0 0 0-1.57.662 3.7814 3.7814 0 0 0-1.1197 1.2864 14.0867 14.0867 0 0 0-.9515 2.0618c-.7303 1.897-1.2908 3.8557-1.98 5.7681-.324.8711-.3394.8711-1.3165.8711-1.1675 0-1.0852-.1804-1.1006 1.1083 0 .4072.1234.6134.5554.5928.1337 0 .3343-.0671.3857.1082.0515.1753-.1234.2526-.2263.3557a4.6255 4.6255 0 0 1-2.2268 1.2577c-.9772.2629-1.9749.4691-2.9263.7887-2.4429.8196-4.7006 1.9639-6.4594 3.902a14.4355 14.4355 0 0 0-2.4377 4.0413c-1.8875 4.4536-2.8029 9.1443-3.5126 13.8814-.3343 2.2217-.5709 4.4536-.7509 6.701C7.103 47.7577 7 48.8763 7 50h17.1411a1.1262 1.1262 0 0 0-.1182-.6598 2.5775 2.5775 0 0 0-.7778-1.0502 2.5694 2.5694 0 0 0-1.192-.5323c-.36-.0824-.4011-.1907-.18-.4742a5.3415 5.3415 0 0 0 .8178-1.5979c.8382-2.4794 1.1622-5.067 1.5685-7.6289a15.4883 15.4883 0 0 1 1.7692-5.5825 11.126 11.126 0 0 1 2.8748-3.2835c.4269-.3247.4423-.3247.5143.2268.0514.366.0617.7423.0874 1.1134a48.1655 48.1655 0 0 1-.0925 7.3093 31.8664 31.8664 0 0 0-.0772 5.6701A38.8258 38.8258 0 0 0 30.5029 50h6.84a2.7908 2.7908 0 0 0-.7351-1.4844 2.7807 2.7807 0 0 0-1.4455-.8043 4.62 4.62 0 0 0-1.9337.1031c-.3086.0722-.4372 0-.4629-.335a29.1125 29.1125 0 0 1 .5143-8.1547 91.8027 91.8027 0 0 0 1.5737-9.3711 9.1634 9.1634 0 0 1 1.1726-3.6082c.612-1.0928 1.1468-2.2268 1.7486-3.3248a3.031 3.031 0 0 0 .216-2.6752c-.1389-.366-.2726-.7372-.4423-1.0877-.5143-1.0051-1.0286-2-1.5017-3.0154-.252-.5155-.1955-.5774.3651-.5928.8383 0 .8383 0 .8537-.8454v-.3402c0-.3557-.1337-.5515-.5143-.5154h-.7817c-.3548 0-.4577-.1495-.3703-.5155a3.2169 3.2169 0 0 1 .9829-1.5321 3.2058 3.2058 0 0 1 1.6554-.7514 11.2914 11.2914 0 0 1 3.4046.2216.5129.5129 0 0 0 .3889-.0328.5148.5148 0 0 0 .2539-.2971c.2058-.5154.432-1.0309.6635-1.5464a.5167.5167 0 0 0-.0515-.5876c-1.6457-2.0928-3.4302-4.0464-5.8628-5.299a.7672.7672 0 0 1-.4526-.5773 10.1228 10.1228 0 0 0-.6531-2.1443A1.803 1.803 0 0 0 35.2034 0Z" fill="#000"/>
  </g>
  <defs>
    <clipPath id="a">
      <path fill="#fff" transform="translate(7)" d="M0 0h36v50H0z"/>
    </clipPath>
  </defs>
</svg>
